<?xml version="1.0" encoding="UTF-8" standalone="no"?>
<svg
   viewBox="0 0 128 128"
   role="img"
   aria-label="Solace"
   version="1.1"
   id="svg1"
   sodipodi:docname="favicon.svg"
   inkscape:version="1.4.4 (dcaf3e7, 2026-05-05)"
   xmlns:inkscape="http://www.inkscape.org/namespaces/inkscape"
   xmlns:sodipodi="http://sodipodi.sourceforge.net/DTD/sodipodi-0.dtd"
   xmlns="http://www.w3.org/2000/svg"
   xmlns:svg="http://www.w3.org/2000/svg">
  <defs
     id="defs1" />
  <sodipodi:namedview
     id="namedview1"
     pagecolor="#ffffff"
     bordercolor="#000000"
     borderopacity="0.25"
     inkscape:showpageshadow="2"
     inkscape:pageopacity="0.0"
     inkscape:pagecheckerboard="0"
     inkscape:deskcolor="#d1d1d1"
     inkscape:zoom="4.7011552"
     inkscape:cx="39.990171"
     inkscape:cy="60.091613"
     inkscape:window-width="1920"
     inkscape:window-height="1111"
     inkscape:window-x="1911"
     inkscape:window-y="-9"
     inkscape:window-maximized="1"
     inkscape:current-layer="svg1" />
  <rect
     width="128"
     height="128"
     rx="24"
     fill="#536B59"
     id="rect1" />
  <path
     d="m 66.973335,11.487526 c -3.092261,2.926817 -4.179015,6.563344 -2.894805,9.681643 0.508388,1.23445 0.543007,2.251327 0.103945,3.084077 -0.570288,1.082075 -0.657205,1.033178 -0.675646,-0.379701 -0.02435,-1.980005 -2.485128,-5.108077 -4.530434,-5.759929 -1.286421,-0.409038 -1.50375,-0.199633 -1.50375,1.452816 0,2.072879 2.660484,5.558673 4.242347,5.558673 1.452936,0 1.74028,1.618209 1.3041,7.365117 l -0.396379,5.23274 -1.287146,-2.340956 C 60.627513,34.093772 59.694032,31.877478 59.261529,30.455622 58.3833,27.567103 55.042732,25.125105 51.97038,25.125105 c -2.138147,0 -2.258959,0.666511 -0.755191,4.17021 1.178109,2.746762 3.872488,4.698244 6.486595,4.698244 2.491034,0 3.781133,4.357617 3.77894,12.763267 l -0.0018,6.820818 -2.645031,-3.325269 c -1.61794,-2.034583 -2.488815,-3.755474 -2.242737,-4.434227 1.100015,-3.031916 0.958552,-5.195254 -0.485525,-7.438448 l -1.508899,-2.342596 -0.876781,1.749414 c -1.298938,2.59111 -1.108854,5.133337 0.527536,7.06037 0.799409,0.940301 1.1759,1.702969 0.835514,1.694006 -1.027066,-0.02779 -3.291187,-2.449335 -4.226913,-4.521404 -1.131697,-2.505572 -3.346438,-3.594967 -7.280825,-3.580308 -4.565071,0.01555 -5.146407,0.679547 -3.180681,3.626755 0.896653,1.343623 2.256023,2.929268 3.020796,3.520809 1.519239,1.17659 4.892197,1.482962 7.10989,0.646137 1.020467,-0.3854 1.935527,-0.0018 3.341308,1.397424 l 1.935511,1.927033 -3.05393,-0.454671 c -2.66494,-0.398435 -3.325097,-0.204518 -5.178817,1.520447 -2.625141,2.443637 -2.698091,3.806825 -0.236513,4.404892 2.30758,0.5606 5.396889,-0.647778 6.628058,-2.593543 1.383646,-2.183713 3.238126,-1.741282 5.315116,1.267841 1.801403,2.608221 1.880257,3.085701 2.090232,12.563636 0.218815,9.834034 0.358136,29.459472 -0.284995,43.989828 -0.596394,9.35689 -0.08564,10.00037 -3.50622,12.0491 1.474865,0.15366 1.065724,0.0845 5.346178,0.2154 2.707535,-0.12742 5.379559,0.0277 4.560737,-0.48818 -2.586002,-1.62956 -2.653928,-1.40656 -2.913387,-8.85521 -0.521423,-16.589621 -0.47256,-37.454292 0.262032,-47.432396 -0.0052,-3.568084 0.386073,-5.683352 1.496378,-8.082979 2.119713,-4.582526 3.36271,-5.241717 5.369667,-2.845336 2.006232,2.393928 3.957956,3.101187 6.883719,2.494141 2.789443,-0.578505 2.851327,-1.367261 0.327869,-4.158814 -2.075505,-2.294526 -4.554763,-2.758953 -7.693454,-1.439779 -2.430637,1.023405 -2.12853,0.360156 0.969621,-2.121778 2.424714,-1.941708 2.907304,-2.072068 5.026303,-1.352585 3.138671,1.064965 6.268488,-0.589123 8.999004,-4.75771 2.439458,-3.724534 1.925961,-4.37882 -3.54462,-4.514084 -4.242381,-0.105148 -6.780587,1.526974 -7.826817,5.035559 -0.115685,0.391926 -0.265261,0.768382 -0.448679,1.127692 -0.182746,0.360156 -0.396417,0.696675 -0.639559,1.009573 -0.243126,0.312882 -0.512031,0.597257 -0.806039,0.851485 -0.293959,0.254228 -0.607841,0.474217 -0.940855,0.659984 l -2.090958,1.152988 1.596591,-1.879792 c 1.751315,-2.061485 2.042354,-5.649132 0.687421,-8.450457 -0.954132,-1.969403 -2.043096,-1.210001 -3.655175,2.547927 -0.984355,2.292091 -0.988775,2.776892 -0.05232,5.25394 1.133908,3.002599 1.041067,3.281258 -2.687013,8.043044 l -1.735859,2.217104 0.215136,-8.49932 C 64.549877,37.37667 65.675653,34.596531 69.980667,33.952 c 3.117297,-0.466068 4.53634,-1.542446 5.912614,-4.487183 1.7226,-3.683785 1.32622,-4.59394 -1.761622,-4.048017 -3.543152,0.626609 -5.877287,2.369479 -6.41291,4.787858 -0.236529,1.067415 -1.15972,3.105262 -2.051193,4.52793 l -1.621645,2.587051 0.369135,-2.956151 c 0.203344,-1.626375 0.555542,-4.800893 0.782454,-7.0555 0.369843,-3.656884 0.630666,-4.204448 2.429151,-5.084457 2.753366,-1.34768 4.11196,-5.105624 3.531401,-9.76963 -0.244627,-1.972667 -0.66385,-3.5876304 -0.93127,-3.5876304 -0.267489,0 -1.731458,1.1798534 -3.253673,2.6212554"
     id="path71"
     style="fill:#ffffff;fill-opacity:1;stroke-width:0.198352"
     sodipodi:nodetypes="cscccssccccscscccccccccccccccccccccccccscccccccccccccssccccccsccccccccccccsc" />
</svg>
