<?xml version="1.0" encoding="UTF-8" standalone="no"?>
<svg
   viewBox="0 0 128 128"
   role="img"
   aria-label="Solace"
   version="1.1"
   id="svg1"
   sodipodi:docname="favicon.svg"
   inkscape:version="1.4.4 (dcaf3e7, 2026-05-05)"
   xmlns:inkscape="http://www.inkscape.org/namespaces/inkscape"
   xmlns:sodipodi="http://sodipodi.sourceforge.net/DTD/sodipodi-0.dtd"
   xmlns="http://www.w3.org/2000/svg"
   xmlns:svg="http://www.w3.org/2000/svg">
  <defs
     id="defs1" />
  <sodipodi:namedview
     id="namedview1"
     pagecolor="#ffffff"
     bordercolor="#000000"
     borderopacity="0.25"
     inkscape:showpageshadow="2"
     inkscape:pageopacity="0.0"
     inkscape:pagecheckerboard="0"
     inkscape:deskcolor="#d1d1d1"
     inkscape:zoom="4.7011552"
     inkscape:cx="39.990171"
     inkscape:cy="60.091613"
     inkscape:window-width="1920"
     inkscape:window-height="1111"
     inkscape:window-x="1911"
     inkscape:window-y="-9"
     inkscape:window-maximized="1"
     inkscape:current-layer="svg1" />
  <rect
     width="128"
     height="128"
     rx="24"
     fill="#536B59"
     id="rect1" />
  <path
     d="m 67.63323,18.698532 c -2.642624,2.501236 -3.571356,5.608985 -2.473879,8.273861 0.434464,1.054951 0.464049,1.923967 0.08883,2.635629 -0.487364,0.924733 -0.561642,0.882946 -0.577402,-0.32449 -0.02081,-1.692097 -2.123772,-4.365325 -3.871675,-4.922393 -1.099366,-0.34956 -1.285094,-0.170604 -1.285094,1.241566 0,1.771467 2.27363,4.750401 3.625478,4.750401 1.241669,0 1.487231,1.38291 1.114475,6.294175 l -0.338743,4.471861 -1.099985,-2.000564 c -0.605098,-1.100915 -1.402844,-2.994944 -1.772458,-4.210051 -0.750528,-2.468507 -3.605353,-4.555421 -6.230962,-4.555421 -1.827245,0 -1.93049,0.569596 -0.645381,3.563831 1.006804,2.347363 3.3094,4.015085 5.543397,4.015085 2.128819,0 3.231328,3.723987 3.229454,10.907393 l -0.0015,5.829021 -2.260424,-2.84175 c -1.38268,-1.73874 -2.126923,-3.209401 -1.916627,-3.789458 0.940065,-2.591053 0.819172,-4.439826 -0.414926,-6.356843 l -1.289494,-2.001965 -0.749291,1.495036 c -1.110062,2.214344 -0.947618,4.386912 0.450829,6.033741 0.683169,0.803574 1.004915,1.455344 0.714024,1.447685 -0.877723,-0.02375 -2.812624,-2.093184 -3.612289,-3.863959 -0.96714,-2.141243 -2.859841,-3.072232 -6.222139,-3.059705 -3.901276,0.01329 -4.398082,0.580736 -2.718187,3.099398 0.766273,1.148251 1.927981,2.503331 2.58155,3.008858 1.298331,1.005505 4.180836,1.267328 6.07606,0.552184 0.872083,-0.32936 1.654087,-0.0015 2.855457,1.194228 l 1.654073,1.646828 -2.609866,-0.388558 c -2.277438,-0.3405 -2.841603,-0.17478 -4.425778,1.299362 -2.243427,2.088315 -2.305769,3.253285 -0.202123,3.764389 1.972041,0.479084 4.612142,-0.553587 5.66429,-2.216423 1.182454,-1.866185 2.767278,-1.488087 4.542259,1.083487 1.539465,2.228967 1.606854,2.637018 1.786297,10.736791 0.186997,8.404093 0.30606,25.175848 -0.243555,37.593388 -0.509674,7.99633 -0.07319,8.54624 -2.99639,10.29707 1.260409,0.13132 0.91076,0.0722 4.568805,0.18408 2.313839,-0.10889 4.597331,0.0237 3.897572,-0.4172 -2.209978,-1.3926 -2.268028,-1.20203 -2.489759,-7.56759 -0.445605,-14.177374 -0.403847,-32.008168 0.22393,-40.535382 -0.0044,-3.049258 0.329935,-4.856951 1.278794,-6.907654 1.811491,-3.916193 2.873747,-4.479533 4.588878,-2.431603 1.714511,2.045833 3.38244,2.650251 5.882775,2.131474 2.383838,-0.494386 2.436723,-1.168451 0.280195,-3.554092 -1.773712,-1.960885 -3.892467,-2.357781 -6.574769,-1.230424 -2.077205,0.874594 -1.819026,0.307786 0.828631,-1.813256 2.072142,-1.659369 2.48456,-1.770774 4.295441,-1.155909 2.682285,0.910111 5.357004,-0.50346 7.690482,-4.065904 2.084743,-3.182959 1.645913,-3.742107 -3.029206,-3.857703 -3.625507,-0.08986 -5.794639,1.304941 -6.68874,4.303352 -0.09886,0.334937 -0.22669,0.656653 -0.383437,0.963717 -0.156174,0.307787 -0.338776,0.595373 -0.546563,0.862774 -0.207774,0.267386 -0.437578,0.510411 -0.688835,0.727672 -0.251215,0.217262 -0.519456,0.405263 -0.804048,0.564018 l -1.786917,0.985335 1.364435,-1.606457 c 1.496661,-1.761729 1.745381,-4.827706 0.587465,-7.221698 -0.815394,-1.683037 -1.746015,-1.034058 -3.123686,2.17744 -0.841222,1.958804 -0.845,2.373111 -0.04471,4.489978 0.969029,2.565999 0.889688,2.804139 -2.296301,6.873526 l -1.483453,1.894721 0.183854,-7.263456 c 0.229832,-9.108776 1.191912,-11.484662 4.870945,-12.035473 2.664019,-0.398299 3.876723,-1.318163 5.052877,-3.834714 1.472121,-3.148135 1.133378,-3.925947 -1.505469,-3.459405 -3.027952,0.535495 -5.022687,2.024939 -5.480426,4.091668 -0.202136,0.912205 -0.991088,2.653734 -1.752934,3.869535 l -1.385846,2.210875 0.31546,-2.526305 c 0.173776,-1.389888 0.474762,-4.102808 0.668679,-6.029578 0.316065,-3.125146 0.538963,-3.59309 2.075935,-4.345139 2.353006,-1.151718 3.51405,-4.363229 3.017909,-8.349054 -0.209096,-1.685827 -0.567361,-3.065963 -0.795897,-3.065963 -0.228594,0 -1.479691,1.008294 -2.780564,2.240106"
     id="path71"
     style="fill:#ffffff;fill-opacity:1;stroke-width:0.16951"
     sodipodi:nodetypes="cscccssccccscscccccccccccccccccccccccccscccccccccccccssccccccsccccccccccccsc" />
</svg>
