<?xml version="1.0" encoding="UTF-8" standalone="no"?>
<!-- Created with Inkscape (http://www.inkscape.org/) -->

<svg
   width="210mm"
   height="130mm"
   viewBox="4 0 210 130"
   version="1.1"
   id="svg1"
   inkscape:version="1.4.4 (dcaf3e7, 2026-05-05)"
   sodipodi:docname="solace-logo-dark.svg"
   inkscape:export-filename="solace-logo.png"
   inkscape:export-xdpi="96"
   inkscape:export-ydpi="96"
   xmlns:inkscape="http://www.inkscape.org/namespaces/inkscape"
   xmlns:sodipodi="http://sodipodi.sourceforge.net/DTD/sodipodi-0.dtd"
   xmlns="http://www.w3.org/2000/svg"
   xmlns:svg="http://www.w3.org/2000/svg">
  <sodipodi:namedview
     id="namedview1"
     pagecolor="#ffffff"
     bordercolor="#000000"
     borderopacity="0.25"
     inkscape:showpageshadow="2"
     inkscape:pageopacity="0.0"
     inkscape:pagecheckerboard="0"
     inkscape:deskcolor="#d1d1d1"
     inkscape:document-units="mm"
     inkscape:zoom="0.75811588"
     inkscape:cx="284.91687"
     inkscape:cy="203.7947"
     inkscape:window-width="1920"
     inkscape:window-height="1111"
     inkscape:window-x="1911"
     inkscape:window-y="-9"
     inkscape:window-maximized="1"
     inkscape:current-layer="layer1" />
  <defs
     id="defs1" />
  <g
     inkscape:label="Layer 1"
     inkscape:groupmode="layer"
     id="layer1">
    <path
       style="font-weight:300;font-size:56.4444px;line-height:0;font-family:'Cormorant Garamond';-inkscape-font-specification:'Cormorant Garamond, Light';letter-spacing:5.29167px;fill:#536b59;stroke-width:0.264583"
       d="m 33.615413,57.057302 q 0,2.370664 1.128888,4.063996 1.185333,1.636888 2.991554,2.878665 1.862665,1.241777 3.894663,2.427109 2.088443,1.185332 4.007553,2.539998 1.919109,1.298221 3.160886,3.160887 1.298221,1.80622 1.298221,4.515552 0,2.596442 -1.298221,4.797774 -1.241777,2.144887 -3.781775,3.443108 -2.539998,1.298221 -6.378217,1.298221 -1.241777,0 -2.483554,-0.169333 -1.185332,-0.169333 -2.483553,-0.564444 -1.241777,-0.451555 -2.709331,-1.185332 -0.282222,-0.169333 -0.395111,-0.395111 -0.05645,-0.282222 -0.112889,-0.677333 l -0.846666,-7.337772 q -0.05645,-0.282222 0.225778,-0.282222 0.338666,-0.05644 0.39511,0.169333 0.225778,1.693332 0.903111,3.386664 0.677333,1.693332 1.806221,3.104442 1.185332,1.41111 2.878664,2.314221 1.749776,0.846666 4.063997,0.846666 1.749776,0 3.386664,-0.620889 1.636888,-0.677332 2.652887,-2.144887 1.072443,-1.467554 1.072443,-4.007552 0,-2.765776 -1.241776,-4.571997 -1.185333,-1.862665 -3.047998,-3.160886 -1.862665,-1.354666 -3.951108,-2.539998 -1.975554,-1.185333 -3.838219,-2.483554 -1.862666,-1.298221 -3.047998,-3.047998 -1.128888,-1.80622 -1.128888,-4.459107 0,-2.935109 1.467554,-4.854219 1.467555,-1.975554 3.781775,-2.935109 2.370665,-0.959554 4.910663,-0.959554 1.467554,0 3.047998,0.338666 1.636887,0.282222 3.386664,1.015999 0.451555,0.169333 0.620888,0.451555 0.225778,0.225778 0.225778,0.508 l 0.507999,5.983107 q 0,0.225777 -0.338666,0.225777 -0.282222,0 -0.338666,-0.225777 -0.112889,-1.241777 -0.620889,-2.539998 -0.451555,-1.354666 -1.41111,-2.483554 -0.90311,-1.128888 -2.370665,-1.806221 -1.41111,-0.733777 -3.443108,-0.733777 -2.427109,0 -3.894664,1.015999 -1.41111,1.015999 -2.031998,2.539998 -0.620889,1.523999 -0.620889,3.160887 z m 37.860122,29.181755 q -3.33022,0 -5.813774,-1.636888 -2.427109,-1.636887 -3.781775,-4.346219 -1.298221,-2.765775 -1.298221,-5.926662 0,-2.935109 1.072444,-5.079996 1.072443,-2.144887 2.82222,-3.499553 1.806221,-1.41111 3.894664,-2.088443 2.088442,-0.677332 4.120441,-0.677332 3.386664,0 5.813773,1.693332 2.427109,1.693332 3.725331,4.346219 1.298221,2.652886 1.298221,5.587995 0,3.612442 -1.636888,6.208884 -1.636888,2.596443 -4.346219,4.007553 -2.652887,1.41111 -5.870217,1.41111 z m 1.580443,-1.015999 q 3.160886,0 5.079996,-2.088443 1.919109,-2.144888 1.919109,-7.05555 0,-3.443109 -1.185332,-6.15244 -1.185332,-2.709331 -3.33022,-4.289775 -2.088442,-1.580443 -4.910662,-1.580443 -3.217331,0 -5.023552,2.257776 -1.806221,2.201332 -1.806221,6.378218 0,3.330219 1.128888,6.208884 1.185332,2.878664 3.273775,4.628441 2.088443,1.693332 4.854219,1.693332 z m 53.819672,0.620888 q -0.22578,0.112889 -0.45156,0.112889 -0.67733,0 -1.24178,-1.185333 -0.56444,-1.185332 -0.56444,-3.443108 V 70.434625 q 0,-3.499553 -1.12889,-4.854219 -1.07244,-1.354666 -2.70933,-1.354666 -1.41111,0 -2.37067,0.677333 -0.90311,0.620889 -1.41111,1.580443 -0.45155,0.959555 -0.67733,1.806221 -0.11289,0.564444 -0.39511,1.354666 -0.28222,0.733777 -1.41111,0.733777 -0.84666,0 -1.29822,-0.507999 -0.39511,-0.508 -0.39511,-1.072444 0,-0.959555 1.016,-1.91911 1.016,-1.015999 2.54,-1.862665 1.58044,-0.846666 3.27377,-1.354666 1.69333,-0.507999 3.10444,-0.507999 2.31422,0 3.38667,1.523999 1.07244,1.467554 1.07244,4.063997 v 10.667991 q 0,2.031999 0.45156,2.991553 0.508,0.903111 1.69333,0.903111 1.07244,0 3.10444,-0.846666 0.28222,-0.112889 0.39511,0.225778 0.11289,0.282222 -0.16933,0.39511 z m -9.99066,0.05644 q -2.08845,0 -3.21733,-1.128888 -1.07245,-1.185332 -1.07245,-2.709331 0,-0.959555 0.45156,-1.862665 0.508,-0.903111 1.69333,-1.749777 1.24178,-0.846666 3.38666,-1.636887 l 7.05555,-2.652887 0.11289,0.733777 -6.66044,2.539998 q -1.18533,0.451555 -1.80622,1.015999 -0.62089,0.508 -0.84666,1.128888 -0.22578,0.564444 -0.22578,1.185333 0,1.241777 0.79022,2.257776 0.84667,1.015999 2.42711,1.015999 0.62089,0 1.29822,-0.169333 0.67733,-0.225778 1.63689,-0.790222 l 3.78177,-2.201331 0.11289,0.677332 -4.23333,2.652887 q -1.41111,0.903111 -2.48355,1.298222 -1.07245,0.39511 -2.20133,0.39511 z m 34.24768,0.282222 q -3.83822,0 -6.26533,-1.636887 -2.37066,-1.693332 -3.49955,-4.23333 -1.12889,-2.596443 -1.12889,-5.24933 0,-2.82222 1.07244,-5.023551 1.07245,-2.201332 2.82222,-3.725331 1.80622,-1.523999 3.95111,-2.31422 2.14489,-0.790222 4.23333,-0.790222 1.58045,0 3.048,0.451555 1.46755,0.395111 2.42711,1.128888 0.95955,0.733778 0.95955,1.636888 0,0.677333 -0.45155,1.185332 -0.39511,0.451556 -1.18533,0.451556 -0.79023,0 -1.35467,-0.508 -0.56444,-0.508 -0.90311,-1.072444 -0.67733,-0.959554 -1.63689,-1.523998 -0.90311,-0.620889 -2.70933,-0.620889 -3.44311,0 -5.24933,2.539998 -1.80622,2.483554 -1.80622,6.547551 0,2.878664 1.016,5.418662 1.016,2.483554 3.10444,4.063997 2.14489,1.523999 5.53155,1.523999 1.46756,0 2.99156,-0.395111 1.58044,-0.451555 2.82222,-1.580443 0.16933,-0.112889 0.33866,0.112889 0.22578,0.225777 0.0565,0.338666 -1.91911,1.749777 -3.89467,2.539998 -1.97555,0.733777 -4.28977,0.733777 z m 27.07916,0 q -3.33022,0 -5.588,-1.523998 -2.20133,-1.580444 -3.33021,-4.063997 -1.12889,-2.483554 -1.12889,-5.24933 0,-3.443108 1.58044,-6.152439 1.58044,-2.765776 4.23333,-4.346219 2.70933,-1.636888 5.87022,-1.636888 3.21733,0 4.79777,1.749777 1.58045,1.749776 1.58045,4.684885 0,0.733777 -0.16934,1.072444 -0.11289,0.338666 -0.508,0.338666 h -2.65288 q 0.28222,-3.499553 -1.12889,-5.079996 -1.35467,-1.636888 -3.72533,-1.636888 -3.16089,0 -4.91067,2.427109 -1.74977,2.370665 -1.74977,6.547551 0,3.160886 1.016,5.700884 1.016,2.483554 2.99155,3.951109 1.97555,1.41111 4.79777,1.41111 1.97556,0 3.21734,-0.564444 1.29822,-0.620889 2.48355,-1.354666 0.11289,-0.112889 0.28222,0.169333 0.22578,0.225778 0.11289,0.395111 -1.97555,1.693332 -4.00755,2.427109 -1.97556,0.733777 -4.064,0.733777 z m -7.56355,-15.070655 -0.0564,-0.677332 12.86932,-0.225778 v 0.846666 z"
       id="text1"
       aria-label="So ace" />
    <path
       d="m 51.340401,101.21033 v -4.445003 h 3.048 v 0.4064 h -2.5781 v 3.632203 h 2.67335 v 0.4064 z m 0.4191,-2.057403 v -0.40005 h 2.3495 v 0.40005 z m 5.945723,2.057403 v -4.445003 h 0.38735 l 3.06705,3.860803 h -0.2032 v -3.860803 h 0.46355 v 4.445003 h -0.38735 l -3.0607,-3.860803 h 0.2032 v 3.860803 z m 7.279218,0 v -4.445003 h 1.80975 q 0.7112,0 1.2446,0.28575 0.53975,0.2794 0.8382,0.78105 0.29845,0.50165 0.29845,1.1557 0,0.65405 -0.29845,1.155703 -0.29845,0.50165 -0.8382,0.7874 -0.5334,0.2794 -1.2446,0.2794 z m 0.4699,-0.4064 h 1.31445 q 0.59055,0 1.02235,-0.2286 0.43815,-0.23495 0.67945,-0.641353 0.2413,-0.41275 0.2413,-0.94615 0,-0.53975 -0.2413,-0.94615 -0.2413,-0.4064 -0.67945,-0.635 -0.4318,-0.23495 -1.02235,-0.23495 h -1.31445 z m 12.615335,0.4445 q -0.501649,0 -0.933449,-0.1651 -0.42545,-0.17145 -0.74295,-0.47625 -0.31115,-0.31115 -0.48895,-0.717553 -0.17145,-0.41275 -0.17145,-0.9017 0,-0.48895 0.17145,-0.89535 0.1778,-0.41275 0.48895,-0.71755 0.3175,-0.31115 0.74295,-0.47625 0.42545,-0.17145 0.933449,-0.17145 0.50165,0 0.9271,0.17145 0.42545,0.1651 0.7366,0.4699 0.3175,0.3048 0.48895,0.71755 0.1778,0.41275 0.1778,0.9017 0,0.48895 -0.1778,0.9017 -0.17145,0.412753 -0.48895,0.717553 -0.31115,0.3048 -0.7366,0.47625 -0.42545,0.1651 -0.9271,0.1651 z m 0,-0.4191 q 0.40005,0 0.7366,-0.13335 0.3429,-0.1397 0.59055,-0.38735 0.254,-0.254 0.3937,-0.584203 0.1397,-0.33655 0.1397,-0.7366 0,-0.40005 -0.1397,-0.73025 -0.1397,-0.33655 -0.3937,-0.5842 -0.24765,-0.254 -0.59055,-0.38735 -0.33655,-0.1397 -0.7366,-0.1397 -0.400049,0 -0.742949,0.1397 -0.3429,0.13335 -0.5969,0.38735 -0.24765,0.24765 -0.3937,0.5842 -0.1397,0.3302 -0.1397,0.73025 0,0.3937 0.1397,0.73025 0.14605,0.336553 0.3937,0.590553 0.254,0.24765 0.5969,0.38735 0.3429,0.13335 0.742949,0.13335 z m 5.501227,0.381 v -4.445003 h 3.048 v 0.4064 h -2.5781 v 4.038603 z m 0.4191,-1.885953 v -0.4064 h 2.3495 v 0.4064 z m 9.49748,1.885953 v -4.445003 h 0.4699 v 4.038603 h 2.4892 v 0.4064 z m 5.856823,0 v -4.445003 h 0.4699 v 4.445003 z m 4.034373,0 v -4.445003 h 3.048 v 0.4064 h -2.5781 v 4.038603 z m 0.4191,-1.885953 v -0.4064 h 2.3495 v 0.4064 z m 5.71711,1.885953 v -4.445003 h 3.048 v 0.4064 h -2.5781 v 3.632203 h 2.67335 v 0.4064 z m 0.4191,-2.057403 v -0.40005 h 2.3495 v 0.40005 z m 10.95164,2.095503 q -0.4953,0 -0.9525,-0.15875 -0.45085,-0.1651 -0.6985,-0.4191 l 0.18415,-0.36195 q 0.23495,0.2286 0.62865,0.38735 0.40005,0.1524 0.8382,0.1524 0.4191,0 0.67945,-0.1016 0.2667,-0.10795 0.38735,-0.28575 0.127,-0.1778 0.127,-0.3937 0,-0.260353 -0.1524,-0.419103 -0.14605,-0.15875 -0.38735,-0.24765 -0.2413,-0.09525 -0.5334,-0.1651 -0.2921,-0.06985 -0.5842,-0.14605 -0.2921,-0.08255 -0.53975,-0.2159 -0.2413,-0.13335 -0.3937,-0.34925 -0.14605,-0.22225 -0.14605,-0.57785 0,-0.3302 0.17145,-0.60325 0.1778,-0.2794 0.53975,-0.4445 0.36195,-0.17145 0.9271,-0.17145 0.37465,0 0.74295,0.10795 0.3683,0.1016 0.635,0.28575 l -0.15875,0.37465 q -0.28575,-0.1905 -0.6096,-0.2794 -0.3175,-0.0889 -0.61595,-0.0889 -0.40005,0 -0.6604,0.10795 -0.26035,0.10795 -0.38735,0.2921 -0.12065,0.1778 -0.12065,0.4064 0,0.26035 0.14605,0.4191 0.1524,0.15875 0.3937,0.24765 0.24765,0.0889 0.53975,0.15875 0.2921,0.06985 0.57785,0.1524 0.2921,0.08255 0.5334,0.2159 0.24765,0.127 0.3937,0.3429 0.1524,0.2159 0.1524,0.565153 0,0.32385 -0.1778,0.60325 -0.1778,0.27305 -0.5461,0.4445 -0.36195,0.1651 -0.93345,0.1651 z m 4.79637,-0.0381 v -4.445003 h 3.048 v 0.4064 h -2.5781 v 3.632203 h 2.67335 v 0.4064 z m 0.4191,-2.057403 v -0.40005 h 2.3495 v 0.40005 z m 5.94572,2.057403 v -4.445003 h 1.6637 q 0.84455,0 1.32715,0.4064 0.48895,0.40005 0.48895,1.1176 0,0.4699 -0.22225,0.8128 -0.2159,0.33655 -0.6223,0.5207 -0.4064,0.1778 -0.97155,0.1778 h -1.40335 l 0.20955,-0.2159 v 1.625603 z m 3.0353,0 -1.143,-1.612903 h 0.508 l 1.14935,1.612903 z m -2.5654,-1.587503 -0.20955,-0.22225 h 1.39065 q 0.66675,0 1.00965,-0.2921 0.34925,-0.2921 0.34925,-0.81915 0,-0.5334 -0.34925,-0.8255 -0.3429,-0.2921 -1.00965,-0.2921 h -1.39065 l 0.20955,-0.22225 z m 7.50147,1.587503 -1.9685,-4.445003 h 0.508 l 1.8415,4.184653 h -0.2794 l 1.8542,-4.184653 h 0.47625 l -1.9685,4.445003 z m 5.19007,0 v -4.445003 h 0.4699 v 4.445003 z m 5.96477,0.0381 q -0.50165,0 -0.9271,-0.1651 -0.42545,-0.17145 -0.7366,-0.47625 -0.31115,-0.3048 -0.48895,-0.717553 -0.17145,-0.41275 -0.17145,-0.9017 0,-0.48895 0.17145,-0.9017 0.1778,-0.41275 0.48895,-0.71755 0.3175,-0.3048 0.74295,-0.4699 0.42545,-0.17145 0.9271,-0.17145 0.4826,0 0.90805,0.1651 0.42545,0.15875 0.71755,0.4826 l -0.29845,0.29845 q -0.27305,-0.2794 -0.60325,-0.40005 -0.3302,-0.127 -0.7112,-0.127 -0.40005,0 -0.74295,0.1397 -0.3429,0.13335 -0.5969,0.38735 -0.254,0.24765 -0.40005,0.5842 -0.1397,0.3302 -0.1397,0.73025 0,0.40005 0.1397,0.7366 0.14605,0.330203 0.40005,0.584203 0.254,0.24765 0.5969,0.38735 0.3429,0.13335 0.74295,0.13335 0.381,0 0.7112,-0.127 0.3302,-0.127 0.60325,-0.4064 l 0.29845,0.29845 q -0.2921,0.32385 -0.71755,0.48895 -0.42545,0.1651 -0.9144,0.1651 z m 4.68842,-0.0381 v -4.445003 h 3.048 v 0.4064 h -2.5781 v 3.632203 h 2.67335 v 0.4064 z m 0.4191,-2.057403 v -0.40005 h 2.3495 v 0.40005 z m 7.17127,2.095503 q -0.4953,0 -0.9525,-0.15875 -0.45085,-0.1651 -0.6985,-0.4191 l 0.18415,-0.36195 q 0.23495,0.2286 0.62865,0.38735 0.40005,0.1524 0.8382,0.1524 0.4191,0 0.67945,-0.1016 0.2667,-0.10795 0.38735,-0.28575 0.127,-0.1778 0.127,-0.3937 0,-0.260353 -0.1524,-0.419103 -0.14605,-0.15875 -0.38735,-0.24765 -0.2413,-0.09525 -0.5334,-0.1651 -0.2921,-0.06985 -0.5842,-0.14605 -0.2921,-0.08255 -0.53975,-0.2159 -0.2413,-0.13335 -0.3937,-0.34925 -0.14605,-0.22225 -0.14605,-0.57785 0,-0.3302 0.17145,-0.60325 0.1778,-0.2794 0.53975,-0.4445 0.36195,-0.17145 0.9271,-0.17145 0.37465,0 0.74295,0.10795 0.3683,0.1016 0.635,0.28575 l -0.15875,0.37465 q -0.28575,-0.1905 -0.6096,-0.2794 -0.3175,-0.0889 -0.61595,-0.0889 -0.40005,0 -0.6604,0.10795 -0.26035,0.10795 -0.38735,0.2921 -0.12065,0.1778 -0.12065,0.4064 0,0.26035 0.14605,0.4191 0.1524,0.15875 0.3937,0.24765 0.24765,0.0889 0.53975,0.15875 0.2921,0.06985 0.57785,0.1524 0.2921,0.08255 0.5334,0.2159 0.24765,0.127 0.3937,0.3429 0.1524,0.2159 0.1524,0.565153 0,0.32385 -0.1778,0.60325 -0.1778,0.27305 -0.5461,0.4445 -0.36195,0.1651 -0.93345,0.1651 z"
       id="text2"
       style="font-size:6.35px;font-family:Montserrat;-inkscape-font-specification:'Montserrat, Normal';letter-spacing:2.11667px;fill:#536b59;stroke-width:0.265"
       aria-label="END OF LIFE SERVICES" />
    <g
       id="path1"
       style="opacity:1">
      <path
         style="baseline-shift:baseline;display:inline;overflow:visible;vector-effect:none;fill:#536b59;enable-background:accumulate;stop-color:#000000;stop-opacity:1"
         d="m 30.0141,99.216334 c 30.624853,0 0,0 0,0 z"
         id="path3" />
      <path
         style="baseline-shift:baseline;display:inline;overflow:visible;vector-effect:none;fill:#536b59;enable-background:accumulate;stop-color:#000000;stop-opacity:1"
         d="m 30.013672,99.03125 v 0.369141 c 7.656213,0 11.484382,0 12.919922,0 0.140403,0 0.457417,0 0.539062,0 0.02164,0 0.09725,0 0.111328,0 0.0071,0 0.02695,0 0.03125,0 0.0016,0 0.0068,0 0.0078,0 3.96e-4,0 0.0017,0 0.002,0 6.21e-4,0 3.12e-4,-0.369141 0,-0.369141 -2.48e-4,0 -0.0016,0 -0.002,0 -10e-4,0 -0.0062,0 -0.0078,0 -0.0043,0 -0.02419,0 -0.03125,0 -0.01408,0 -0.08969,0 -0.111328,0 -0.08165,0 -0.398659,0 -0.539062,0 -1.43554,0 -5.263709,0 -12.919922,0 z"
         id="path4" />
    </g>
    <g
       id="path1-8"
       style="opacity:1">
      <path
         style="baseline-shift:baseline;display:inline;overflow:visible;vector-effect:none;fill:#536b59;enable-background:accumulate;stop-color:#000000;stop-opacity:1"
         d="m 172.68916,98.756784 c 30.62486,0 0,0 0,0 z"
         id="path5" />
      <path
         style="baseline-shift:baseline;display:inline;overflow:visible;vector-effect:none;fill:#536b59;enable-background:accumulate;stop-color:#000000;stop-opacity:1"
         d="m 172.68945,98.572266 v 0.36914 c 7.65622,0 11.48438,0 12.91992,0 0.13989,0 0.45568,0 0.53711,0 0.0222,0 0.099,0 0.11329,0 0.007,0 0.027,0 0.0312,0 0.001,0 0.005,0 0.006,0 5.5e-4,0 0.002,0 0.002,0 3.9e-4,0 0.002,0 0.002,0 1.6e-4,0 8e-5,-0.09184 0,-0.183594 8e-5,-0.09273 1.6e-4,-0.185546 0,-0.185546 -1.5e-4,0 -0.002,0 -0.002,0 -3.1e-4,0 -0.001,0 -0.002,0 -7.9e-4,0 -0.005,0 -0.006,0 -0.004,0 -0.0243,0 -0.0312,0 -0.0143,0 -0.0911,0 -0.11329,0 -0.0814,0 -0.39722,0 -0.53711,0 -1.43554,0 -5.2637,0 -12.91992,0 z"
         id="path6" />
    </g>
    <path
       d="m 100.04032,22.271824 c -1.790931,1.69511 -2.420341,3.80126 -1.676571,5.60727 0.29444,0.71495 0.31449,1.30389 0.0602,1.78619 -0.33029,0.6267 -0.38063,0.59838 -0.39131,-0.21991 -0.0141,-1.14675 -1.4393,-2.95842 -2.62387,-3.33595 -0.74505,-0.2369 -0.87092,-0.11562 -0.87092,0.84142 0,1.20054 1.54086,3.21939 2.45702,3.21939 0.84149,0 1.00791,0.93721 0.75529,4.26562 l -0.22957,3.03062 -0.74547,-1.3558 c -0.41008,-0.7461 -0.95072,-2.0297 -1.20121,-2.85319 -0.50864,-1.67293 -2.44338,-3.08725 -4.22278,-3.08725 -1.23834,0 -1.30831,0.38602 -0.43738,2.41524 0.68232,1.59083 2.24281,2.72106 3.75681,2.72106 1.44272,0 2.1899,2.52378 2.18863,7.39204 l -0.001,3.95038 -1.53191,-1.92588 c -0.93706,-1.17836 -1.44144,-2.17504 -1.29892,-2.56815 0.63709,-1.75598 0.55516,-3.00891 -0.2812,-4.30809 l -0.87391,-1.35675 -0.5078,1.0132 c -0.7523,1.50068 -0.64221,2.97305 0.30553,4.08912 0.46299,0.54459 0.68104,0.9863 0.4839,0.98111 -0.59484,-0.0161 -1.90614,-1.41857 -2.44808,-2.61864 -0.65544,-1.45114 -1.93814,-2.08208 -4.2168,-2.07359 -2.64393,0.009 -2.98062,0.39357 -1.84214,2.10049 0.51931,0.77818 1.30661,1.69653 1.74954,2.03913 0.87989,0.68144 2.83339,0.85888 4.1178,0.37422 0.59102,-0.22321 1.12099,-0.001 1.93517,0.80934 l 1.12098,1.11607 -1.76873,-0.26333 c -1.54344,-0.23076 -1.92578,-0.11845 -2.99939,0.88059 -1.52039,1.41527 -1.56264,2.20478 -0.13698,2.55116 1.33647,0.32468 3.12569,-0.37517 3.83874,-1.50209 0.80136,-1.26473 1.87541,-1.00849 3.07833,0.73429 1.04331,1.51059 1.08898,1.78713 1.21059,7.27642 0.12673,5.69553 0.20742,17.0619 -0.16506,25.47737 -0.34541,5.41919 -0.0496,5.79187 -2.03068,6.97842 0.85419,0.089 0.61723,0.049 3.09632,0.12476 1.56811,-0.0738 3.115651,0.0161 2.641421,-0.28274 -1.497721,-0.94378 -1.537061,-0.81463 -1.687331,-5.12863 -0.30199,-9.60813 -0.27369,-21.69222 0.15176,-27.47119 -0.003,-2.06651 0.2236,-3.2916 0.86665,-4.68138 1.227661,-2.65404 1.947561,-3.03582 3.109921,-1.64792 1.16194,1.38648 2.29231,1.7961 3.98681,1.44452 1.61555,-0.33505 1.65139,-0.79187 0.18989,-2.40864 -1.20206,-1.32891 -2.63796,-1.59789 -4.45578,-0.83387 -1.40774,0.59272 -1.23277,0.20859 0.56157,-1.22886 1.40431,-1.12457 1.68381,-1.20007 2.91106,-0.78337 1.81781,0.61679 3.63049,-0.3412 5.21191,-2.7555 1.41285,-2.15712 1.11545,-2.53606 -2.05292,-2.6144 -2.45704,-0.0609 -3.92708,0.88437 -4.53302,2.91642 -0.067,0.22699 -0.15363,0.44502 -0.25986,0.65312 -0.10584,0.20859 -0.22959,0.40349 -0.37041,0.58471 -0.14081,0.18121 -0.29655,0.34591 -0.46683,0.49315 -0.17025,0.14724 -0.35204,0.27465 -0.54491,0.38224 l -1.21101,0.66777 0.92469,-1.08871 c 1.0143,-1.19394 1.18286,-3.27178 0.39813,-4.89421 -0.5526,-1.14061 -1.18329,-0.70079 -2.11695,1.47567 -0.5701,1.3275 -0.57266,1.60828 -0.0303,3.0429 0.65672,1.739 0.60295,1.90039 -1.556221,4.65825 l -1.00535,1.28407 0.1246,-4.92251 c 0.15576,-6.1731 0.80777,-7.78326 3.301081,-8.15655 1.80543,-0.26993 2.62729,-0.89333 3.42438,-2.59882 0.99767,-2.13352 0.7681,-2.66065 -1.02027,-2.34447 -2.05207,0.36291 -3.40392,1.37232 -3.71413,2.77296 -0.13699,0.61821 -0.671671,1.79846 -1.187981,2.62242 l -0.9392,1.49833 0.21379,-1.7121 c 0.11777,-0.94194 0.32175,-2.78051 0.45317,-4.0863 0.2142,-2.11794 0.36526,-2.43507 1.406881,-2.94474 1.59465,-0.78053 2.3815,-2.957 2.04526,-5.65823 -0.14168,-1.1425 -0.38448,-2.07783 -0.53936,-2.07783 -0.15492,0 -1.0028,0.68333 -1.88441,1.51814"
       id="path71"
       style="fill:#536b59;fill-opacity:1;stroke-width:0.114878"
       sodipodi:nodetypes="cscccssccccscscccccccccccccccccccccccccscccccccccccccssccccccsccccccccccccsc" />
  </g>
</svg>
