<?xml version="1.0" encoding="UTF-8" standalone="no"?>
<!-- Created with Inkscape (http://www.inkscape.org/) -->

<svg
   width="174.845mm"
   height="72.607002mm"
   viewBox="-10 -3 174.845 72.607"
   version="1.1"
   id="svg1"
   inkscape:version="1.4.4 (dcaf3e7, 2026-05-05)"
   sodipodi:docname="solace-logo.svg"
   inkscape:export-filename="solace-logo-light.svg"
   inkscape:export-xdpi="96"
   inkscape:export-ydpi="96"
   xmlns:inkscape="http://www.inkscape.org/namespaces/inkscape"
   xmlns:sodipodi="http://sodipodi.sourceforge.net/DTD/sodipodi-0.dtd"
   xmlns="http://www.w3.org/2000/svg"
   xmlns:svg="http://www.w3.org/2000/svg">
  <sodipodi:namedview
     id="namedview1"
     pagecolor="#ffffff"
     bordercolor="#000000"
     borderopacity="0.25"
     inkscape:showpageshadow="2"
     inkscape:pageopacity="0.0"
     inkscape:pagecheckerboard="0"
     inkscape:deskcolor="#d1d1d1"
     inkscape:document-units="mm"
     inkscape:zoom="0.75811588"
     inkscape:cx="397.03693"
     inkscape:cy="289.53357"
     inkscape:window-width="1920"
     inkscape:window-height="1111"
     inkscape:window-x="1911"
     inkscape:window-y="-9"
     inkscape:window-maximized="1"
     inkscape:current-layer="layer1">
    <inkscape:page
       x="10"
       y="2.999999"
       width="156.84489"
       height="66.596771"
       id="page2"
       margin="0"
       bleed="0" />
  </sodipodi:namedview>
  <defs
     id="defs1" />
  <g
     inkscape:label="Layer 1"
     inkscape:groupmode="layer"
     id="layer1"
     transform="translate(-29.551416,-22.641311)">
    <g
       id="g17"
       transform="matrix(0.07565515,0,0,0.12700395,75.671225,22.64131)"
       style="fill:#536b59;fill-opacity:1;stroke-width:0.999766;stroke-dasharray:none">
      <path
         d="m 284.6262,523.48612 c 2.19126,-7.67995 3.03395,-11.50717 4.6914,-17.26148 3.63875,-12.1604 11.97072,-26.12363 14.99072,-30.17463 20.214,-27.114 35.96568,-54.09001 49.09668,-83.87901 11.766,-26.699 23.978,-57.841 19.93,-89.604 -3.947,-30.955 -19.97,-60.646 -35.459,-89.346 -1.157,-2.191 -2.524,-4.562 -3.966,-7.053 -7.788,-13.47 -17.482,-30.233 -6.295,-41.521 0.578,-0.582 0.594,-1.518 0.034,-2.118 -0.558,-0.603 -1.49,-0.652 -2.115,-0.123 -14.602,12.509 -6.967,29.141 -1.392,41.286 2.613,5.682 5.294,11.359 7.978,17.032 5.101,10.793 10.379,21.95 15.046,32.975 12.76,30.162 13.451,62.105 2.09,97.528 -8.645,-25.01 -33.274,-46.809 -57.137,-67.929 -4.314,-3.819 -8.62,-7.629 -12.824,-11.45 -30.842,-28.021 -43.366,-57.789 -38.293,-91.005 4.416,-28.936 24.609,-54.581 45.982,-81.732 3.14,-3.987 6.282,-7.98 9.376,-11.989 9.945,-12.867 21.285,-31.861 18.835,-49.257 -1.225,-8.7 -5.836,-16.034 -13.7,-21.806 -0.651,-0.477 -1.561,-0.364 -2.077,0.254 -0.518,0.618 -0.466,1.533 0.119,2.09 6.536,6.227 9.73,13.164 9.765,21.212 0.101,22.222 -24.78,47.714 -43.275,65.735 13.602,-35.414 24.03,-67.85 20.649,-101.458 -0.079,-0.808 -0.771,-1.398 -1.598,-1.374 -0.813,0.042 -1.453,0.713 -1.453,1.53 0,32.552 -15.578,64.71 -30.646,95.812 -15.998,33.023 -32.5,67.09 -30.695,102.127 -1.346,-2.895 -2.65,-5.856 -3.993,-8.908 -10.229,-23.256 -20.808,-47.304 -59.288,-61.402 -0.765,-0.281 -1.622,0.092 -1.937,0.845 -0.315,0.756 0.019,1.625 0.762,1.974 35.766,16.854 43.348,40.523 51.377,65.582 3.957,12.353 8.048,25.125 15.848,36.698 10.964,16.27 28.011,31.387 44.498,46.007 23.051,20.441 46.886,41.577 53.596,65.631 10.594,37.987 -16.08,75.01 -41.876,110.812 l -5,6.955 c -5.896,8.229 -14.72029,20.1876 -34.12765,35.59443 -14.74681,9.59203 -21.49974,19.31712 -13.58733,20.86856 14.04808,2.75452 36.57395,1.55223 56.07018,0.84213 z"
         id="path1-7"
         sodipodi:nodetypes="cccccccccccccccccccccccccccscccccccccccccsc"
         style="fill:#536b59;fill-opacity:1;stroke-width:0.999766;stroke-dasharray:none" />
      <path
         d="m 347.105,111.164 c -12.77,10.591 -17.488,28.749 -13.847,44.682 4.079,-8.785 10.318,-17.053 17.815,-23.176 11.264,-9.202 24.395,-16.062 33.92,-27.314 6.635,-7.836 10.301,-18.614 12.338,-28.568 -4.617,8.048 -13.002,13.333 -21.028,17.423 -10.085,5.138 -20.416,9.67 -29.198,16.953 z"
         id="path2-6"
         style="fill:#536b59;fill-opacity:1;stroke-width:0.999766;stroke-dasharray:none" />
      <path
         d="m 393.094,96.43 c -6.849,17.616 -24.902,25.787 -38.508,37.259 -17.071,14.394 -19.948,33.412 -19.948,33.412 1.228,-1.641 2.547,-3.231 3.96,-4.716 2.338,-2.454 5.275,-3.825 8.329,-5.15 3.269,-1.417 6.659,-2.543 10.004,-3.761 3.319,-1.208 6.634,-2.485 9.755,-4.152 12.025,-6.417 21.325,-15.716 24.728,-29.162 1.937,-7.644 2.506,-15.878 1.68,-23.73 z"
         id="path3-1"
         style="fill:#536b59;fill-opacity:1;stroke-width:0.999766;stroke-dasharray:none" />
      <path
         d="m 122.535,158.355 c -9.676,0.04 -19.749,-2.375 -28.485,-6.561 7.319,14.611 22.509,25.627 39.098,25.683 11.411,0.037 22.265,-3.036 33.314,-5.48 8.798,-1.946 18.626,-3.201 27.308,0.076 -7.904,-6.386 -17.586,-12.375 -27.69,-14.205 -14.503,-2.628 -29.001,0.429 -43.545,0.487 z"
         id="path4-8"
         style="fill:#536b59;fill-opacity:1;stroke-width:0.999766;stroke-dasharray:none" />
      <path
         d="m 178.013,159.606 c -4.354,-6.585 -10.031,-12.577 -16.386,-17.246 -11.178,-8.213 -24.269,-9.48 -37.629,-6.784 -3.47,0.701 -6.839,1.821 -10.171,2.999 -3.357,1.187 -6.689,2.472 -10.113,3.458 -3.198,0.921 -6.337,1.729 -9.704,1.322 -2.035,-0.248 -4.063,-0.636 -6.053,-1.123 0,0 14.315,12.852 36.641,13.106 17.796,0.199 36.927,-4.973 53.415,4.268 z"
         id="path5-9"
         style="fill:#536b59;fill-opacity:1;stroke-width:0.999766;stroke-dasharray:none" />
      <path
         d="m 226.565,82.029 c 6.429,6.31 12.843,13.865 14.835,22.929 1.041,-10.107 0.777,-21.487 -3.201,-30.955 -5.713,-13.589 -16.181,-24.073 -24.165,-36.23 -5.315,-8.087 -8.785,-17.849 -10.042,-27.451 -8.253,14.106 -9.195,32.846 -0.193,46.778 6.194,9.58 14.688,17.001 22.766,24.929 z"
         id="path6-2"
         style="fill:#536b59;fill-opacity:1;stroke-width:0.999766;stroke-dasharray:none" />
      <path
         d="m 243.252,84.949 c 3.143,-7.243 5.067,-15.27 5.514,-23.14 0.786,-13.849 -5.297,-25.511 -14.844,-35.236 -2.479,-2.527 -5.257,-4.74 -8.063,-6.888 -2.828,-2.164 -5.722,-4.257 -8.415,-6.588 -2.516,-2.179 -4.908,-4.367 -6.398,-7.411 -0.903,-1.839 -1.683,-3.752 -2.362,-5.686 0,0 -2.959,19.005 9.008,37.858 9.537,15.022 24.308,28.232 25.56,47.091 z"
         id="path7-7"
         style="fill:#536b59;fill-opacity:1;stroke-width:0.999766;stroke-dasharray:none" />
      <path
         d="m 195.718,298.598 c -10.582,2.959 -22.338,3.348 -33.161,1.396 12.411,13.794 32.359,21.279 50.536,16.344 12.503,-3.394 23.461,-10.024 34.823,-16.031 9.045,-4.78 19.428,-9.113 29.92,-8.137 -10.575,-4.614 -22.977,-8.253 -34.59,-7.216 -16.671,1.492 -31.625,9.2 -47.528,13.644 z"
         id="path8-9"
         style="fill:#536b59;fill-opacity:1;stroke-width:0.999766;stroke-dasharray:none" />
      <path
         d="m 190.46,273.218 c -3.589,1.812 -6.94,4.052 -10.232,6.347 -3.317,2.311 -6.579,4.722 -10.031,6.83 -3.225,1.971 -6.417,3.801 -10.224,4.366 -2.301,0.343 -4.639,0.526 -6.964,0.594 0,0 19.541,9.759 44.061,3.314 19.541,-5.135 38.929,-16.558 59.759,-11.405 -6.75,-5.896 -14.771,-10.749 -23.131,-13.947 -14.709,-5.628 -29.422,-3.073 -43.238,3.901 z"
         id="path9-5"
         style="fill:#536b59;fill-opacity:1;stroke-width:0.999766;stroke-dasharray:none" />
      <path
         d="m 282.97,228.417 c 3.009,10.034 11.384,18.663 21.852,20.53 7.2,1.282 14.392,0.542 21.641,0.217 5.768,-0.257 12.114,0.034 17.233,3.063 -4.283,-4.905 -9.736,-9.752 -15.915,-12.023 -8.867,-3.259 -18.359,-2.931 -27.549,-4.498 -6.114,-1.044 -12.206,-3.682 -17.262,-7.289 z"
         id="path10-4"
         style="fill:#536b59;fill-opacity:1;stroke-width:0.999766;stroke-dasharray:none" />
      <path
         d="m 303.668,221.483 c -2.268,0.058 -4.52,0.395 -6.754,0.771 -2.249,0.379 -4.495,0.823 -6.766,1.068 -2.12,0.227 -4.191,0.392 -6.27,-0.236 -1.258,-0.379 -2.494,-0.851 -3.696,-1.377 0,0 7.619,9.694 21.689,12.316 11.211,2.09 23.861,0.937 33.25,8.59 -2.023,-4.639 -4.945,-9.049 -8.443,-12.696 -6.149,-6.42 -14.276,-8.663 -23.01,-8.436 z"
         id="path11-3"
         style="fill:#536b59;fill-opacity:1;stroke-width:0.999766;stroke-dasharray:none" />
      <path
         d="m 364.437,46.038 c 6.178,-2.271 11.628,-7.118 15.915,-12.023 -5.119,3.026 -11.466,3.32 -17.234,3.063 -7.249,-0.325 -14.439,-1.065 -21.64,0.217 -10.469,1.867 -18.841,10.496 -21.852,20.53 5.052,-3.608 11.147,-6.243 17.262,-7.286 9.192,-1.57 18.681,-1.243 27.549,-4.501 z"
         id="path12-1"
         style="fill:#536b59;fill-opacity:1;stroke-width:0.999766;stroke-dasharray:none" />
      <path
         d="m 326.808,62.919 c 2.271,0.245 4.517,0.688 6.766,1.068 2.233,0.376 4.483,0.713 6.754,0.771 8.732,0.227 16.857,-2.017 23.008,-8.437 3.497,-3.647 6.417,-8.06 8.442,-12.696 -9.388,7.653 -22.038,6.5 -33.25,8.589 -14.069,2.625 -21.689,12.316 -21.689,12.316 1.203,-0.526 2.442,-0.998 3.696,-1.377 2.081,-0.628 4.153,-0.463 6.273,-0.234 z"
         id="path13-2"
         style="fill:#536b59;fill-opacity:1;stroke-width:0.999766;stroke-dasharray:none" />
      <path
         d="m 308.766,156.274 c -5.119,3.026 -11.463,3.32 -17.233,3.063 -7.249,-0.324 -14.44,-1.064 -21.641,0.217 -10.468,1.867 -18.84,10.496 -21.852,20.53 5.052,-3.608 11.147,-6.242 17.262,-7.286 9.189,-1.566 18.678,-1.239 27.549,-4.498 6.179,-2.274 11.631,-7.121 15.915,-12.026 z"
         id="path14-3"
         style="fill:#536b59;fill-opacity:1;stroke-width:0.999766;stroke-dasharray:none" />
      <path
         d="m 245.253,186.792 c 1.203,-0.526 2.442,-0.998 3.697,-1.377 2.078,-0.63 4.149,-0.465 6.27,-0.236 2.271,0.245 4.517,0.688 6.766,1.068 2.234,0.376 4.483,0.713 6.754,0.771 8.733,0.226 16.857,-2.017 23.008,-8.437 3.498,-3.647 6.417,-8.057 8.442,-12.696 -9.388,7.653 -22.038,6.499 -33.25,8.589 -14.067,2.624 -21.687,12.318 -21.687,12.318 z"
         id="path15-3"
         style="fill:#536b59;fill-opacity:1;stroke-width:0.999766;stroke-dasharray:none" />
      <path
         d="m 381.466,303.301 c 4.051,-4.703 9.342,-8.715 15.033,-11.181 8.553,-3.709 17.849,-5.646 25.688,-10.922 5.459,-3.675 9.603,-9.679 12.599,-15.462 -4.254,4.158 -10.346,5.952 -16.01,7.071 -7.118,1.408 -14.278,2.399 -20.968,5.355 -9.724,4.304 -15.807,14.677 -16.342,25.139 z"
         id="path16-4"
         style="fill:#536b59;fill-opacity:1;stroke-width:0.999766;stroke-dasharray:none" />
      <path
         d="m 398.489,293.362 c -13.042,5.894 -18.137,17.12 -18.137,17.12 1.043,-0.795 2.133,-1.548 3.265,-2.215 1.87,-1.104 3.92,-1.438 6.034,-1.72 2.265,-0.303 4.551,-0.407 6.827,-0.572 2.259,-0.165 4.526,-0.373 6.741,-0.857 8.537,-1.857 15.894,-5.967 20.343,-13.665 2.527,-4.376 4.318,-9.354 5.181,-14.34 -7.301,9.664 -19.863,11.549 -30.254,16.249 z"
         id="path17-1"
         style="fill:#536b59;fill-opacity:1;stroke-width:0.999766;stroke-dasharray:none" />
    </g>
    <path
       style="font-weight:300;font-size:56.4444px;line-height:0;font-family:'Cormorant Garamond';-inkscape-font-specification:'Cormorant Garamond, Light';letter-spacing:5.29167px;fill:#536b59;stroke-width:0.264583"
       d="m 33.615413,57.057302 q 0,2.370664 1.128888,4.063996 1.185333,1.636888 2.991554,2.878665 1.862665,1.241777 3.894663,2.427109 2.088443,1.185332 4.007553,2.539998 1.919109,1.298221 3.160886,3.160887 1.298221,1.80622 1.298221,4.515552 0,2.596442 -1.298221,4.797774 -1.241777,2.144887 -3.781775,3.443108 -2.539998,1.298221 -6.378217,1.298221 -1.241777,0 -2.483554,-0.169333 -1.185332,-0.169333 -2.483553,-0.564444 -1.241777,-0.451555 -2.709331,-1.185332 -0.282222,-0.169333 -0.395111,-0.395111 -0.05645,-0.282222 -0.112889,-0.677333 l -0.846666,-7.337772 q -0.05645,-0.282222 0.225778,-0.282222 0.338666,-0.05644 0.39511,0.169333 0.225778,1.693332 0.903111,3.386664 0.677333,1.693332 1.806221,3.104442 1.185332,1.41111 2.878664,2.314221 1.749776,0.846666 4.063997,0.846666 1.749776,0 3.386664,-0.620889 1.636888,-0.677332 2.652887,-2.144887 1.072443,-1.467554 1.072443,-4.007552 0,-2.765776 -1.241776,-4.571997 -1.185333,-1.862665 -3.047998,-3.160886 -1.862665,-1.354666 -3.951108,-2.539998 -1.975554,-1.185333 -3.838219,-2.483554 -1.862666,-1.298221 -3.047998,-3.047998 -1.128888,-1.80622 -1.128888,-4.459107 0,-2.935109 1.467554,-4.854219 1.467555,-1.975554 3.781775,-2.935109 2.370665,-0.959554 4.910663,-0.959554 1.467554,0 3.047998,0.338666 1.636887,0.282222 3.386664,1.015999 0.451555,0.169333 0.620888,0.451555 0.225778,0.225778 0.225778,0.508 l 0.507999,5.983107 q 0,0.225777 -0.338666,0.225777 -0.282222,0 -0.338666,-0.225777 -0.112889,-1.241777 -0.620889,-2.539998 -0.451555,-1.354666 -1.41111,-2.483554 -0.90311,-1.128888 -2.370665,-1.806221 -1.41111,-0.733777 -3.443108,-0.733777 -2.427109,0 -3.894664,1.015999 -1.41111,1.015999 -2.031998,2.539998 -0.620889,1.523999 -0.620889,3.160887 z m 37.860122,29.181755 q -3.33022,0 -5.813774,-1.636888 -2.427109,-1.636887 -3.781775,-4.346219 -1.298221,-2.765775 -1.298221,-5.926662 0,-2.935109 1.072444,-5.079996 1.072443,-2.144887 2.82222,-3.499553 1.806221,-1.41111 3.894664,-2.088443 2.088442,-0.677332 4.120441,-0.677332 3.386664,0 5.813773,1.693332 2.427109,1.693332 3.725331,4.346219 1.298221,2.652886 1.298221,5.587995 0,3.612442 -1.636888,6.208884 -1.636888,2.596443 -4.346219,4.007553 -2.652887,1.41111 -5.870217,1.41111 z m 1.580443,-1.015999 q 3.160886,0 5.079996,-2.088443 1.919109,-2.144888 1.919109,-7.05555 0,-3.443109 -1.185332,-6.15244 -1.185332,-2.709331 -3.33022,-4.289775 -2.088442,-1.580443 -4.910662,-1.580443 -3.217331,0 -5.023552,2.257776 -1.806221,2.201332 -1.806221,6.378218 0,3.330219 1.128888,6.208884 1.185332,2.878664 3.273775,4.628441 2.088443,1.693332 4.854219,1.693332 z m 53.819672,0.620888 q -0.22578,0.112889 -0.45156,0.112889 -0.67733,0 -1.24178,-1.185333 -0.56444,-1.185332 -0.56444,-3.443108 V 70.434625 q 0,-3.499553 -1.12889,-4.854219 -1.07244,-1.354666 -2.70933,-1.354666 -1.41111,0 -2.37067,0.677333 -0.90311,0.620889 -1.41111,1.580443 -0.45155,0.959555 -0.67733,1.806221 -0.11289,0.564444 -0.39511,1.354666 -0.28222,0.733777 -1.41111,0.733777 -0.84666,0 -1.29822,-0.507999 -0.39511,-0.508 -0.39511,-1.072444 0,-0.959555 1.016,-1.91911 1.016,-1.015999 2.54,-1.862665 1.58044,-0.846666 3.27377,-1.354666 1.69333,-0.507999 3.10444,-0.507999 2.31422,0 3.38667,1.523999 1.07244,1.467554 1.07244,4.063997 v 10.667991 q 0,2.031999 0.45156,2.991553 0.508,0.903111 1.69333,0.903111 1.07244,0 3.10444,-0.846666 0.28222,-0.112889 0.39511,0.225778 0.11289,0.282222 -0.16933,0.39511 z m -9.99066,0.05644 q -2.08845,0 -3.21733,-1.128888 -1.07245,-1.185332 -1.07245,-2.709331 0,-0.959555 0.45156,-1.862665 0.508,-0.903111 1.69333,-1.749777 1.24178,-0.846666 3.38666,-1.636887 l 7.05555,-2.652887 0.11289,0.733777 -6.66044,2.539998 q -1.18533,0.451555 -1.80622,1.015999 -0.62089,0.508 -0.84666,1.128888 -0.22578,0.564444 -0.22578,1.185333 0,1.241777 0.79022,2.257776 0.84667,1.015999 2.42711,1.015999 0.62089,0 1.29822,-0.169333 0.67733,-0.225778 1.63689,-0.790222 l 3.78177,-2.201331 0.11289,0.677332 -4.23333,2.652887 q -1.41111,0.903111 -2.48355,1.298222 -1.07245,0.39511 -2.20133,0.39511 z m 34.24768,0.282222 q -3.83822,0 -6.26533,-1.636887 -2.37066,-1.693332 -3.49955,-4.23333 -1.12889,-2.596443 -1.12889,-5.24933 0,-2.82222 1.07244,-5.023551 1.07245,-2.201332 2.82222,-3.725331 1.80622,-1.523999 3.95111,-2.31422 2.14489,-0.790222 4.23333,-0.790222 1.58045,0 3.048,0.451555 1.46755,0.395111 2.42711,1.128888 0.95955,0.733778 0.95955,1.636888 0,0.677333 -0.45155,1.185332 -0.39511,0.451556 -1.18533,0.451556 -0.79023,0 -1.35467,-0.508 -0.56444,-0.508 -0.90311,-1.072444 -0.67733,-0.959554 -1.63689,-1.523998 -0.90311,-0.620889 -2.70933,-0.620889 -3.44311,0 -5.24933,2.539998 -1.80622,2.483554 -1.80622,6.547551 0,2.878664 1.016,5.418662 1.016,2.483554 3.10444,4.063997 2.14489,1.523999 5.53155,1.523999 1.46756,0 2.99156,-0.395111 1.58044,-0.451555 2.82222,-1.580443 0.16933,-0.112889 0.33866,0.112889 0.22578,0.225777 0.0565,0.338666 -1.91911,1.749777 -3.89467,2.539998 -1.97555,0.733777 -4.28977,0.733777 z m 27.07916,0 q -3.33022,0 -5.588,-1.523998 -2.20133,-1.580444 -3.33021,-4.063997 -1.12889,-2.483554 -1.12889,-5.24933 0,-3.443108 1.58044,-6.152439 1.58044,-2.765776 4.23333,-4.346219 2.70933,-1.636888 5.87022,-1.636888 3.21733,0 4.79777,1.749777 1.58045,1.749776 1.58045,4.684885 0,0.733777 -0.16934,1.072444 -0.11289,0.338666 -0.508,0.338666 h -2.65288 q 0.28222,-3.499553 -1.12889,-5.079996 -1.35467,-1.636888 -3.72533,-1.636888 -3.16089,0 -4.91067,2.427109 -1.74977,2.370665 -1.74977,6.547551 0,3.160886 1.016,5.700884 1.016,2.483554 2.99155,3.951109 1.97555,1.41111 4.79777,1.41111 1.97556,0 3.21734,-0.564444 1.29822,-0.620889 2.48355,-1.354666 0.11289,-0.112889 0.28222,0.169333 0.22578,0.225778 0.11289,0.395111 -1.97555,1.693332 -4.00755,2.427109 -1.97556,0.733777 -4.064,0.733777 z m -7.56355,-15.070655 -0.0564,-0.677332 12.86932,-0.225778 v 0.846666 z"
       id="text1"
       aria-label="So ace" />
  </g>
</svg>
