<?xml version="1.0" encoding="UTF-8" standalone="no"?>
<!-- Created with Inkscape (http://www.inkscape.org/) -->

<svg
   width="210mm"
   height="297mm"
   viewBox="0 0 210 297"
   version="1.1"
   id="svg1"
   inkscape:version="1.4.4 (dcaf3e7, 2026-05-05)"
   sodipodi:docname="solace-logo-master.svg"
   inkscape:export-filename="solace-logo-light.svg"
   inkscape:export-xdpi="96"
   inkscape:export-ydpi="96"
   xmlns:inkscape="http://www.inkscape.org/namespaces/inkscape"
   xmlns:sodipodi="http://sodipodi.sourceforge.net/DTD/sodipodi-0.dtd"
   xmlns="http://www.w3.org/2000/svg"
   xmlns:svg="http://www.w3.org/2000/svg">
  <sodipodi:namedview
     id="namedview1"
     pagecolor="#ffffff"
     bordercolor="#000000"
     borderopacity="0.25"
     inkscape:showpageshadow="2"
     inkscape:pageopacity="0.0"
     inkscape:pagecheckerboard="0"
     inkscape:deskcolor="#d1d1d1"
     inkscape:document-units="mm"
     inkscape:zoom="0.75811588"
     inkscape:cx="395.71787"
     inkscape:cy="434.63013"
     inkscape:window-width="1920"
     inkscape:window-height="1111"
     inkscape:window-x="1911"
     inkscape:window-y="-9"
     inkscape:window-maximized="1"
     inkscape:current-layer="layer1" />
  <defs
     id="defs1" />
  <g
     inkscape:label="Layer 1"
     inkscape:groupmode="layer"
     id="layer1">
    <text
       xml:space="preserve"
       style="font-size:50.8px;line-height:0;letter-spacing:5.29167px;writing-mode:lr-tb;direction:ltr;fill:#536b59;stroke-width:0.264583;fill-opacity:1"
       x="25.826086"
       y="85.50528"
       id="text1"><tspan
         sodipodi:role="line"
         id="tspan1"
         style="font-style:normal;font-variant:normal;font-weight:300;font-stretch:normal;font-size:56.4444px;line-height:0;font-family:'Cormorant Garamond';-inkscape-font-specification:'Cormorant Garamond, Light';font-variant-ligatures:normal;font-variant-caps:normal;font-variant-numeric:normal;font-variant-east-asian:normal;letter-spacing:5.29167px;fill:#536b59;fill-opacity:1;stroke-width:0.264583"
         x="25.826086"
         y="85.50528">So ace</tspan></text>
    <text
       xml:space="preserve"
       style="font-style:normal;font-variant:normal;font-weight:normal;font-stretch:normal;font-size:6.35px;font-family:Montserrat;-inkscape-font-specification:'Montserrat, Normal';font-variant-ligatures:normal;font-variant-caps:normal;font-variant-numeric:normal;font-variant-east-asian:normal;letter-spacing:2.11667px;writing-mode:lr-tb;direction:ltr;fill:#536b59;stroke-width:0.265;stroke-dasharray:none;fill-opacity:1"
       x="50.616501"
       y="101.21033"
       id="text2"><tspan
         sodipodi:role="line"
         id="tspan2"
         style="font-style:normal;font-variant:normal;font-weight:normal;font-stretch:normal;font-size:6.35px;font-family:Montserrat;-inkscape-font-specification:'Montserrat, Normal';font-variant-ligatures:normal;font-variant-caps:normal;font-variant-numeric:normal;font-variant-east-asian:normal;letter-spacing:2.11667px;stroke-width:0.265;stroke-dasharray:none;fill:#536b59;fill-opacity:1"
         x="50.616501"
         y="101.21033">END OF LIFE SERVICES</tspan></text>
    <path
       style="fill:#536b59;stroke-width:0.369;fill-opacity:1;stroke:#536b59;stroke-opacity:1;stroke-dasharray:none"
       d="m 30.0141,99.216334 c 30.624853,0 0,0 0,0 z"
       id="path1" />
    <path
       style="fill:#536b59;fill-opacity:1;stroke:#536b59;stroke-width:0.369;stroke-dasharray:none;stroke-opacity:1"
       d="m 172.68916,98.756784 c 30.62486,0 0,0 0,0 z"
       id="path1-8" />
    <path
       d="m 99.480556,22.978717 c -1.79093,1.69511 -2.42034,3.80126 -1.67657,5.60727 0.29444,0.71495 0.31449,1.30389 0.0602,1.78619 -0.33029,0.6267 -0.38063,0.59838 -0.39131,-0.21991 -0.0141,-1.14675 -1.4393,-2.95842 -2.62387,-3.33595 -0.74505,-0.2369 -0.87092,-0.11562 -0.87092,0.84142 0,1.20054 1.54086,3.21939 2.45702,3.21939 0.84149,0 1.00791,0.93721 0.75529,4.26562 l -0.22957,3.03062 -0.74547,-1.3558 c -0.41008,-0.7461 -0.95072,-2.0297 -1.20121,-2.85319 -0.50864,-1.67293 -2.44338,-3.08725 -4.22278,-3.08725 -1.23834,0 -1.30831,0.38602 -0.43738,2.41524 0.68232,1.59083 2.24281,2.72106 3.75681,2.72106 1.44272,0 2.1899,2.52378 2.18863,7.39204 l -10e-4,3.95038 -1.53191,-1.92588 c -0.93706,-1.17836 -1.44144,-2.17504 -1.29892,-2.56815 0.63709,-1.75598 0.55516,-3.00891 -0.2812,-4.30809 l -0.87391,-1.35675 -0.5078,1.0132 c -0.7523,1.50068 -0.64221,2.97305 0.30553,4.08912 0.46299,0.54459 0.68104,0.9863 0.4839,0.98111 -0.59484,-0.0161 -1.90614,-1.41857 -2.44808,-2.61864 -0.65544,-1.45114 -1.93814,-2.08208 -4.2168,-2.07359 -2.64393,0.009 -2.98062,0.39357 -1.84214,2.10049 0.51931,0.77818 1.30661,1.69653 1.74954,2.03913 0.87989,0.68144 2.83339,0.85888 4.1178,0.37422 0.59102,-0.22321 1.12099,-10e-4 1.93517,0.80934 l 1.12098,1.11607 -1.76873,-0.26333 c -1.54344,-0.23076 -1.92578,-0.11845 -2.99939,0.88059 -1.52039,1.41527 -1.56264,2.20478 -0.13698,2.55116 1.33647,0.32468 3.12569,-0.37517 3.83874,-1.50209 0.80136,-1.26473 1.87541,-1.00849 3.07833,0.73429 1.04331,1.51059 1.08898,1.78713 1.21059,7.27642 0.12673,5.69553 0.20742,17.0619 -0.16506,25.47737 -0.34541,5.41919 -0.0496,5.79187 -2.03068,6.97842 0.85419,0.089 0.61723,0.049 3.09632,0.12476 1.56811,-0.0738 3.115654,0.0161 2.64142,-0.28274 -1.49772,-0.94378 -1.53706,-0.81463 -1.68733,-5.12863 -0.30199,-9.60813 -0.27369,-21.69222 0.15176,-27.47119 -0.003,-2.06651 0.2236,-3.2916 0.86665,-4.68138 1.227664,-2.65404 1.947564,-3.03582 3.109924,-1.64792 1.16194,1.38648 2.29231,1.7961 3.98681,1.44452 1.61555,-0.33505 1.65139,-0.79187 0.18989,-2.40864 -1.20206,-1.32891 -2.63796,-1.59789 -4.45578,-0.83387 -1.40774,0.59272 -1.23277,0.20859 0.56157,-1.22886 1.40431,-1.12457 1.68381,-1.20007 2.91106,-0.78337 1.81781,0.61679 3.63049,-0.3412 5.21191,-2.7555 1.41285,-2.15712 1.11545,-2.53606 -2.05292,-2.6144 -2.45704,-0.0609 -3.92708,0.88437 -4.53302,2.91642 -0.067,0.22699 -0.15363,0.44502 -0.25986,0.65312 -0.10584,0.20859 -0.22959,0.40349 -0.37041,0.58471 -0.14081,0.18121 -0.29655,0.34591 -0.46683,0.49315 -0.17025,0.14724 -0.35204,0.27465 -0.54491,0.38224 l -1.21101,0.66777 0.92469,-1.08871 c 1.0143,-1.19394 1.18286,-3.27178 0.39813,-4.89421 -0.5526,-1.14061 -1.18329,-0.70079 -2.11695,1.47567 -0.570104,1.3275 -0.572664,1.60828 -0.0303,3.0429 0.65672,1.739 0.60295,1.90039 -1.556224,4.65825 l -1.00535,1.28407 0.1246,-4.92251 c 0.15576,-6.1731 0.80777,-7.78326 3.301084,-8.15655 1.80543,-0.26993 2.62729,-0.89333 3.42438,-2.59882 0.99767,-2.13352 0.7681,-2.66065 -1.02027,-2.34447 -2.05207,0.36291 -3.40392,1.37232 -3.714134,2.77296 -0.13699,0.61821 -0.67167,1.79846 -1.18798,2.62242 l -0.9392,1.49833 0.21379,-1.7121 c 0.11777,-0.94194 0.32175,-2.78051 0.45317,-4.0863 0.2142,-2.11794 0.36526,-2.43507 1.40688,-2.94474 1.594654,-0.78053 2.381504,-2.957 2.045264,-5.65823 -0.14168,-1.1425 -0.38448,-2.07783 -0.53936,-2.07783 -0.15492,0 -1.0028,0.68333 -1.884414,1.51814"
       id="path71"
       style="fill:#536b59;fill-opacity:1;stroke-width:0.114878"
       sodipodi:nodetypes="cscccssccccscscccccccccccccccccccccccccscccccccccccccssccccccsccccccccccccsc" />
  </g>
</svg>
